<?xml version="1.0" standalone="no"?>
<!DOCTYPE svg PUBLIC "-//W3C//DTD SVG 20010904//EN"
 "http://www.w3.org/TR/2001/REC-SVG-20010904/DTD/svg10.dtd">
<svg version="1.0" xmlns="http://www.w3.org/2000/svg"
 width="1024.000000pt" height="1024.000000pt" viewBox="0 0 1024.000000 1024.000000"
 preserveAspectRatio="xMidYMid meet">

<g transform="translate(0.000000,1024.000000) scale(0.100000,-0.100000)"
fill="#000000" stroke="none">
<path d="M7426 10223 c-6 -14 -5 -15 5 -6 7 7 10 15 7 18 -3 3 -9 -2 -12 -12z"/>
<path d="M8670 10220 c-6 -11 -8 -20 -6 -20 3 0 10 9 16 20 6 11 8 20 6 20 -3
0 -10 -9 -16 -20z"/>
<path d="M10056 10225 c-9 -26 -7 -32 5 -12 6 10 9 21 6 23 -2 3 -7 -2 -11
-11z"/>
<path d="M6845 10219 c-4 -6 -5 -12 -2 -15 2 -3 7 2 10 11 7 17 1 20 -8 4z"/>
<path d="M8040 10210 c-6 -11 -8 -20 -6 -20 3 0 10 9 16 20 6 11 8 20 6 20 -3
0 -10 -9 -16 -20z"/>
<path d="M8445 10219 c-4 -6 -5 -12 -2 -15 2 -3 7 2 10 11 7 17 1 20 -8 4z"/>
<path d="M9689 10213 c-13 -16 -12 -17 4 -4 9 7 17 15 17 17 0 8 -8 3 -21 -13z"/>
<path d="M9970 10219 c0 -5 5 -7 10 -4 6 3 10 8 10 11 0 2 -4 4 -10 4 -5 0
-10 -5 -10 -11z"/>
<path d="M7765 10210 c-3 -5 -1 -10 4 -10 6 0 11 5 11 10 0 6 -2 10 -4 10 -3
0 -8 -4 -11 -10z"/>
<path d="M9585 10149 c-4 -6 -5 -12 -2 -15 2 -3 7 2 10 11 7 17 1 20 -8 4z"/>
<path d="M8795 10139 c-4 -6 -5 -12 -2 -15 2 -3 7 2 10 11 7 17 1 20 -8 4z"/>
<path d="M10090 10099 c0 -5 5 -7 10 -4 6 3 10 8 10 11 0 2 -4 4 -10 4 -5 0
-10 -5 -10 -11z"/>
<path d="M9736 10075 c-9 -26 -7 -32 5 -12 6 10 9 21 6 23 -2 3 -7 -2 -11 -11z"/>
<path d="M9960 10070 c-6 -11 -8 -20 -6 -20 3 0 10 9 16 20 6 11 8 20 6 20 -3
0 -10 -9 -16 -20z"/>
<path d="M8866 10033 c-6 -14 -5 -15 5 -6 7 7 10 15 7 18 -3 3 -9 -2 -12 -12z"/>
<path d="M9815 10029 c-4 -6 -5 -12 -2 -15 2 -3 7 2 10 11 7 17 1 20 -8 4z"/>
<path d="M7725 10019 c-4 -6 -5 -12 -2 -15 2 -3 7 2 10 11 7 17 1 20 -8 4z"/>
<path d="M9915 10019 c-4 -6 -5 -12 -2 -15 2 -3 7 2 10 11 7 17 1 20 -8 4z"/>
<path d="M8885 10009 c-4 -6 -5 -12 -2 -15 2 -3 7 2 10 11 7 17 1 20 -8 4z"/>
<path d="M7346 9983 c-6 -14 -5 -15 5 -6 7 7 10 15 7 18 -3 3 -9 -2 -12 -12z"/>
<path d="M9995 9979 c-4 -6 -5 -12 -2 -15 2 -3 7 2 10 11 7 17 1 20 -8 4z"/>
<path d="M9846 9963 c-6 -14 -5 -15 5 -6 7 7 10 15 7 18 -3 3 -9 -2 -12 -12z"/>
<path d="M10016 9953 c-6 -14 -5 -15 5 -6 7 7 10 15 7 18 -3 3 -9 -2 -12 -12z"/>
<path d="M9565 9949 c-4 -6 -5 -12 -2 -15 2 -3 7 2 10 11 7 17 1 20 -8 4z"/>
<path d="M9325 9920 c-3 -5 -1 -10 4 -10 6 0 11 5 11 10 0 6 -2 10 -4 10 -3 0
-8 -4 -11 -10z"/>
<path d="M8495 9869 c-4 -6 -5 -12 -2 -15 2 -3 7 2 10 11 7 17 1 20 -8 4z"/>
<path d="M9876 9754 c-5 -14 -4 -15 9 -4 17 14 19 20 6 20 -5 0 -12 -7 -15
-16z"/>
<path d="M9760 9725 c-7 -9 -11 -17 -9 -20 3 -2 10 5 17 15 14 24 10 26 -8 5z"/>
<path d="M9585 9710 c-3 -5 -1 -10 4 -10 6 0 11 5 11 10 0 6 -2 10 -4 10 -3 0
-8 -4 -11 -10z"/>
<path d="M9805 9689 c-4 -6 -5 -12 -2 -15 2 -3 7 2 10 11 7 17 1 20 -8 4z"/>
<path d="M9895 9669 c-4 -6 -5 -12 -2 -15 2 -3 7 2 10 11 7 17 1 20 -8 4z"/>
<path d="M9519 9543 c-13 -16 -12 -17 4 -4 9 7 17 15 17 17 0 8 -8 3 -21 -13z"/>
<path d="M9589 9493 l-24 -28 28 24 c15 14 27 26 27 28 0 8 -8 1 -31 -24z"/>
<path d="M2100 9456 c0 -5 36 -76 80 -158 44 -81 80 -156 80 -166 -1 -21 -91
-77 -248 -155 -62 -31 -137 -72 -167 -92 -30 -19 -90 -52 -133 -74 -80 -40
-132 -81 -132 -103 -1 -7 -7 -2 -15 12 l-14 25 -1 -29 c0 -26 -2 -28 -29 -23
-34 7 -135 -23 -196 -58 -22 -12 -51 -26 -64 -30 -14 -4 -29 -12 -35 -17 -25
-21 -124 -80 -202 -119 l-84 -43 5 -35 c3 -20 10 -128 15 -240 7 -131 15 -210
23 -220 23 -29 91 -87 191 -163 56 -43 124 -95 151 -116 51 -40 168 -116 218
-142 16 -8 33 -22 38 -31 9 -18 63 -49 84 -49 6 0 30 -16 52 -35 23 -19 45
-35 50 -35 5 0 23 -13 41 -30 18 -16 34 -29 35 -29 1 0 19 -7 39 -15 21 -9 42
-16 47 -16 5 0 11 -6 14 -13 3 -7 23 -19 46 -27 22 -7 48 -21 57 -32 10 -10
21 -18 25 -18 5 0 25 -12 46 -26 21 -14 48 -30 61 -35 12 -5 22 -13 22 -19 0
-5 7 -10 15 -10 8 0 15 -6 15 -14 0 -9 7 -12 18 -9 10 2 49 -11 87 -30 39 -20
102 -45 140 -58 39 -12 76 -27 84 -33 8 -6 62 -12 120 -14 91 -3 113 -1 154
18 26 11 47 25 47 30 0 5 6 7 14 4 7 -3 16 2 19 10 4 11 19 16 42 16 20 0 43
7 51 15 9 8 11 15 5 15 -6 0 -11 7 -11 15 0 8 6 12 13 9 7 -2 23 9 35 26 13
16 27 30 33 30 16 0 39 26 39 44 0 9 5 16 10 16 17 0 11 18 -7 23 -15 3 -13 6
8 16 24 12 26 17 19 42 -5 17 -5 29 1 29 5 0 8 6 7 13 -2 7 5 11 15 9 18 -3
18 6 0 72 -3 10 -1 16 4 13 6 -4 6 15 2 46 -3 29 -4 76 -1 105 3 35 1 52 -6
52 -6 0 -19 14 -28 32 -9 18 -23 38 -30 46 -8 7 -14 16 -15 20 0 4 -2 23 -3
42 -3 35 -41 126 -57 136 -5 3 -9 16 -9 29 0 13 -7 30 -15 39 -8 8 -12 22 -9
30 4 11 0 16 -14 16 -21 0 -52 39 -52 65 0 8 -4 15 -8 15 -13 0 -52 36 -52 47
0 6 -9 18 -21 29 -12 10 -30 35 -40 54 -33 61 -43 73 -103 135 -32 33 -65 75
-72 93 -8 17 -18 32 -22 32 -9 0 -63 80 -95 139 -10 19 -31 52 -45 74 -25 37
-43 68 -100 172 -12 22 -39 54 -59 71 l-38 32 -2 91 -2 92 -90 167 c-50 92
-91 163 -91 158z"/>
<path d="M5987 9405 c-5 -29 1 -32 19 -7 12 14 13 14 8 1 -9 -27 31 -56 69
-50 4 0 7 -4 7 -10 0 -5 5 -7 10 -4 6 3 10 1 10 -5 0 -6 4 -9 9 -5 5 3 16 -1
24 -9 8 -8 17 -12 20 -9 4 3 14 2 24 -2 68 -30 113 -41 123 -31 8 8 11 7 8 -4
-6 -28 25 -15 43 18 20 35 15 43 -8 15 -14 -17 -14 -17 -9 0 3 11 2 16 -4 12
-6 -3 -10 -1 -10 6 0 8 -5 7 -17 -2 -15 -13 -16 -11 -10 11 5 21 4 22 -6 10
-13 -17 -37 -24 -37 -12 0 4 6 14 13 22 6 8 1 6 -12 -5 -24 -20 -24 -20 -17
-1 7 19 6 19 -14 1 -19 -17 -20 -17 -20 0 0 14 -3 15 -15 5 -11 -9 -15 -9 -15
-1 0 7 -4 9 -10 6 -5 -3 -10 1 -10 11 0 14 -3 14 -15 4 -13 -11 -14 -10 -9 5
5 13 4 16 -4 11 -7 -4 -12 -3 -12 3 0 6 -7 7 -17 4 -12 -5 -14 -3 -9 8 4 8 -1
3 -13 -11 l-20 -25 5 25 c4 25 4 25 -7 3 -13 -25 -24 -29 -35 -11 -4 7 -3 8 4
4 16 -9 15 5 -1 24 -19 24 -34 21 -40 -5z"/>
<path d="M5956 9412 c-3 -5 1 -9 9 -9 8 0 15 4 15 9 0 4 -4 8 -9 8 -6 0 -12
-4 -15 -8z"/>
<path d="M6299 9403 c-13 -16 -12 -17 4 -4 9 7 17 15 17 17 0 8 -8 3 -21 -13z"/>
<path d="M9294 9338 l-19 -23 23 19 c21 18 27 26 19 26 -2 0 -12 -10 -23 -22z"/>
<path d="M6527 9313 c-4 -3 -7 -11 -7 -17 0 -6 5 -5 12 2 6 6 9 14 7 17 -3 3
-9 2 -12 -2z"/>
<path d="M6365 9270 c-17 -33 -19 -44 -6 -36 10 6 33 66 26 66 -3 0 -11 -13
-20 -30z"/>
<path d="M6426 9273 c-6 -15 -8 -15 -17 -3 -8 13 -10 13 -19 0 -14 -22 -12
-37 6 -37 16 0 51 44 42 53 -3 3 -9 -3 -12 -13z"/>
<path d="M6566 9253 c-6 -14 -5 -15 5 -6 7 7 10 15 7 18 -3 3 -9 -2 -12 -12z"/>
<path d="M6427 9242 c-19 -20 -23 -37 -7 -27 10 6 33 45 27 45 -2 0 -11 -8
-20 -18z"/>
<path d="M6446 9228 c-16 -27 -17 -30 -3 -25 9 3 17 3 19 -1 4 -10 67 -42 81
-42 7 0 13 17 14 38 l2 37 -19 -25 c-19 -24 -19 -24 -13 -2 6 26 -11 30 -26 5
-14 -24 -14 2 0 30 10 22 10 22 -10 0 -24 -28 -35 -30 -21 -3 18 33 -4 23 -24
-12z"/>
<path d="M6570 9205 c-10 -12 -10 -20 -1 -38 6 -12 10 -15 7 -6 -2 9 2 16 10
16 7 0 11 -4 8 -9 -3 -4 -2 -17 1 -28 7 -22 50 -28 59 -7 3 6 3 2 0 -10 -3
-15 1 -23 15 -28 23 -7 41 0 41 17 0 7 -4 7 -13 -1 -14 -11 -27 -5 -27 13 0 6
4 5 9 -2 6 -10 11 -5 20 20 10 30 9 31 -4 14 -8 -11 -15 -14 -15 -7 0 7 -5 9
-12 5 -8 -5 -9 -2 -5 10 10 25 -12 9 -24 -18 -8 -19 -9 -19 -5 -1 2 11 7 29
11 40 4 12 -2 8 -15 -10 -19 -26 -21 -27 -17 -7 3 12 1 20 -4 16 -5 -3 -9 0
-9 6 0 6 -5 8 -12 4 -8 -5 -9 -2 -5 9 8 21 3 22 -13 2z"/>
<path d="M6715 9199 c-4 -6 -5 -12 -2 -15 2 -3 7 2 10 11 7 17 1 20 -8 4z"/>
<path d="M6776 9183 c-6 -14 -5 -15 5 -6 7 7 10 15 7 18 -3 3 -9 -2 -12 -12z"/>
<path d="M6840 9185 c-7 -9 -11 -17 -9 -20 3 -2 10 5 17 15 14 24 10 26 -8 5z"/>
<path d="M6724 9159 c-10 -17 -14 -79 -5 -79 4 0 15 17 25 37 l18 38 -21 -19
c-23 -21 -27 -16 -11 15 11 20 6 27 -6 8z"/>
<path d="M6875 9130 c-3 -6 1 -7 9 -4 18 7 21 14 7 14 -6 0 -13 -4 -16 -10z"/>
<path d="M8125 9120 c-3 -5 -1 -10 4 -10 6 0 11 5 11 10 0 6 -2 10 -4 10 -3 0
-8 -4 -11 -10z"/>
<path d="M6750 9106 c-8 -11 -9 -20 -1 -33 9 -16 10 -14 11 10 0 19 4 26 12
21 7 -4 8 -3 4 4 -9 15 -11 15 -26 -2z"/>
<path d="M8735 9080 c-3 -5 -1 -10 4 -10 6 0 11 5 11 10 0 6 -2 10 -4 10 -3 0
-8 -4 -11 -10z"/>
<path d="M6770 9065 c0 -8 2 -15 4 -15 2 0 11 -3 19 -6 9 -3 16 3 20 15 3 12
1 21 -3 21 -5 0 -11 -8 -13 -17 -4 -17 -5 -17 -6 0 -1 21 -21 23 -21 2z"/>
<path d="M6828 9067 c-14 -34 -8 -45 28 -57 29 -10 38 -10 45 1 13 21 -3 34
-18 14 -15 -22 -18 -3 -3 26 7 12 7 19 1 19 -5 0 -13 -9 -16 -20 -9 -29 -23
-25 -27 8 -2 22 -4 24 -10 9z"/>
<path d="M6967 9073 c-4 -3 -7 -11 -7 -17 0 -6 5 -5 12 2 6 6 9 14 7 17 -3 3
-9 2 -12 -2z"/>
<path d="M6623 9064 c3 -3 124 -66 269 -138 145 -73 328 -167 408 -208 80 -42
298 -153 485 -248 556 -281 711 -362 683 -356 -14 3 -33 9 -42 12 -21 8 -21
-15 1 -46 12 -18 13 -22 3 -14 -8 6 -26 14 -40 17 -14 3 -34 13 -45 22 -19 15
-19 15 14 13 48 -4 49 14 0 40 -48 26 -67 28 -75 7 -4 -8 -12 -15 -19 -15 -7
0 -18 7 -25 15 -11 13 -8 15 14 15 41 0 31 16 -26 43 -71 33 -90 38 -106 28
-10 -6 -9 -10 7 -14 12 -3 21 -10 21 -16 0 -8 -6 -9 -17 -3 -10 5 -35 17 -55
27 -21 9 -36 21 -33 25 3 5 -5 6 -17 2 -14 -3 -19 -1 -14 6 4 7 -3 14 -19 18
-14 3 -25 10 -25 15 0 5 -8 9 -17 9 -10 0 -26 7 -36 14 -18 14 -18 14 0 19 10
3 3 5 -15 6 -18 0 -50 10 -72 21 -22 11 -48 20 -59 20 -11 0 -23 5 -26 10 -3
6 -15 10 -25 10 -10 0 -25 6 -32 13 -7 6 -24 17 -38 23 -89 40 -446 220 -475
240 -20 13 -48 27 -63 30 -15 4 -44 18 -65 31 -21 13 -50 28 -65 33 l-27 10
24 -18 c13 -9 90 -51 170 -93 80 -41 162 -85 181 -96 44 -25 566 -292 925
-473 226 -114 270 -140 271 -158 1 -25 0 -26 -29 -11 -22 12 -39 33 -37 45 3
14 -25 23 -37 12 -7 -6 -20 -7 -30 -2 -18 8 -29 10 -71 13 -13 0 -20 6 -17 11
3 6 -4 10 -17 10 -13 0 -34 12 -47 26 -13 14 -30 23 -37 20 -7 -3 -18 1 -24 9
-6 8 -30 23 -53 33 -138 64 -177 83 -182 92 -3 6 -15 10 -26 10 -11 0 -17 5
-14 10 3 6 -2 13 -12 16 -25 8 -47 18 -134 58 -42 20 -85 36 -95 36 -10 0 -91
36 -179 80 -192 96 -473 230 -483 230 -4 0 -27 14 -51 30 -25 17 -56 33 -70
36 -15 4 -106 46 -203 94 -98 49 -178 87 -178 85 0 -8 199 -114 315 -169 66
-31 129 -62 140 -68 11 -7 128 -67 260 -134 132 -67 263 -134 290 -149 77 -42
163 -85 367 -183 102 -50 210 -105 240 -124 29 -18 134 -74 233 -123 99 -49
190 -99 201 -111 21 -22 128 -76 152 -77 6 0 10 -2 7 -5 -6 -7 36 -38 62 -46
11 -4 27 -14 35 -23 11 -14 10 -15 -12 -8 -45 14 -626 296 -700 339 -40 23
-1338 666 -1345 666 -10 0 -446 220 -480 242 -26 17 -26 16 4 -9 58 -48 194
-120 501 -266 75 -35 150 -78 168 -95 41 -40 200 -122 236 -122 15 0 41 -7 58
-16 24 -13 28 -18 17 -25 -9 -6 -4 -7 15 -3 25 6 28 4 23 -10 -6 -14 -3 -16
14 -11 14 5 19 3 15 -4 -4 -6 10 -21 31 -33 67 -41 129 -66 117 -47 -7 12 7
11 26 -1 10 -6 11 -10 3 -10 -25 0 -12 -16 22 -29 19 -7 35 -16 35 -20 0 -4
19 -18 43 -31 23 -12 49 -28 57 -35 8 -6 31 -18 50 -25 19 -7 53 -26 74 -42
22 -15 46 -28 54 -28 7 0 10 -5 6 -11 -4 -8 -9 -8 -17 0 -6 6 -20 11 -31 11
-11 0 -46 18 -77 40 -32 22 -63 40 -71 40 -7 0 -34 11 -60 25 -26 14 -51 25
-57 25 -9 0 -100 43 -391 182 -69 33 -172 85 -230 116 -58 31 -148 75 -200 97
-52 23 -140 66 -195 97 -55 31 -125 66 -156 77 -30 12 -81 36 -112 55 -31 19
-57 29 -57 23 0 -16 33 -34 395 -220 50 -25 125 -60 168 -78 44 -17 119 -54
169 -81 50 -27 172 -90 272 -140 99 -50 191 -99 203 -108 27 -21 16 -48 -13
-32 -20 11 -139 52 -149 52 -4 0 -3 -5 0 -10 4 -6 -9 -3 -29 6 -19 10 -32 22
-29 27 4 6 0 8 -10 4 -10 -4 -17 -1 -17 5 0 6 -3 9 -6 6 -7 -7 -156 59 -373
167 -94 47 -173 85 -176 85 -5 0 -279 132 -377 181 -24 12 -36 15 -32 7 6 -15
80 -68 94 -68 6 0 10 -4 10 -10 0 -5 7 -10 15 -10 23 0 167 -71 188 -92 10
-10 26 -18 36 -18 25 0 68 -23 87 -46 9 -11 13 -13 9 -7 -4 9 -1 11 9 7 9 -3
13 -11 9 -17 -4 -6 0 -8 10 -4 10 3 17 2 17 -4 0 -6 5 -7 12 -3 8 5 9 1 4 -12
-6 -15 -5 -17 5 -6 20 19 31 14 24 -10 -5 -20 -4 -21 7 -7 7 9 19 14 26 11 10
-3 9 -7 -4 -17 -15 -11 -13 -12 21 -9 21 1 35 0 30 -4 -6 -4 -11 -13 -13 -21
-3 -12 0 -12 12 -1 13 10 16 10 16 0 0 -10 3 -10 15 0 13 11 14 10 9 -4 -3 -9
-1 -16 6 -16 6 0 8 -4 5 -10 -3 -5 -2 -10 4 -10 5 0 14 7 19 16 6 11 12 13 16
6 3 -6 2 -13 -4 -17 -5 -3 -10 -12 -10 -18 0 -7 5 -4 11 6 5 9 16 17 23 17 14
0 31 -28 27 -44 -1 -5 6 -3 15 5 16 12 17 12 12 -2 -5 -13 -2 -16 14 -11 14 3
19 1 14 -6 -10 -16 7 -15 23 1 10 10 11 9 6 -5 -4 -11 -2 -18 4 -18 6 0 11 5
11 10 0 6 5 10 11 10 6 0 8 -7 5 -16 -5 -14 -4 -15 9 -4 11 9 15 9 15 1 0 -7
4 -9 10 -6 6 4 7 -1 3 -11 -5 -14 -3 -16 12 -11 15 6 16 5 6 -7 -10 -12 -7
-14 23 -12 20 2 33 -1 30 -5 -3 -5 0 -9 7 -9 8 0 7 -5 -3 -17 -34 -40 -26 -54
9 -17 21 22 30 31 21 19 -22 -26 -23 -42 -3 -25 22 19 37 0 19 -24 -8 -11 -14
-15 -14 -10 0 6 5 15 12 22 9 9 9 12 0 12 -7 0 -12 -4 -12 -10 0 -5 -9 -19
-20 -30 -11 -11 -16 -20 -11 -20 6 0 13 5 17 11 4 8 9 7 15 -2 6 -10 9 -11 9
-1 0 6 5 12 11 12 6 0 8 -9 4 -22 -5 -19 -3 -17 15 7 20 28 21 29 15 5 -6 -24
-5 -24 9 -6 19 23 21 14 4 -17 -10 -21 -10 -21 7 -7 17 14 18 14 6 -8 -7 -13
-10 -26 -8 -29 3 -3 13 9 22 26 8 17 18 31 20 31 7 0 -13 -49 -29 -71 -12 -18
-14 -18 -20 -4 -7 18 -29 10 -23 -8 2 -7 -3 -18 -12 -26 -9 -7 -3 -5 13 4 26
16 28 16 23 1 -12 -32 2 -15 38 45 54 87 53 66 0 -28 -25 -45 -45 -85 -45 -89
0 -5 15 16 33 47 18 31 37 54 44 52 9 -3 8 -11 -4 -29 -8 -14 -13 -28 -9 -31
4 -4 9 3 13 15 3 12 9 22 14 22 12 0 11 -7 -1 -31 -6 -10 -8 -19 -6 -19 3 0
12 13 21 30 8 16 25 35 38 41 21 12 21 11 4 -8 -9 -11 -14 -22 -11 -26 4 -3
15 4 25 16 10 12 18 16 19 10 0 -7 -4 -13 -10 -13 -5 0 -10 -8 -10 -17 0 -16
2 -16 11 -3 11 15 10 11 -7 -52 -5 -20 -4 -21 7 -8 19 21 49 44 49 37 0 -4
-10 -16 -22 -27 -17 -16 -19 -20 -5 -15 12 5 16 3 14 -6 -2 -8 -2 -11 0 -6 3
4 11 7 19 7 8 0 23 9 34 20 11 11 20 16 20 10 0 -5 -9 -15 -20 -22 -11 -7 -20
-18 -20 -24 0 -6 -8 -20 -17 -32 -10 -11 -26 -35 -35 -52 -10 -17 -22 -29 -27
-25 -5 3 -12 1 -16 -5 -3 -5 -11 -10 -17 -10 -6 0 -3 9 7 20 14 16 20 17 27 8
6 -10 8 -10 8 0 0 7 12 29 26 48 15 19 21 34 14 34 -6 0 -14 -9 -17 -19 -3
-11 -11 -22 -19 -25 -12 -5 -12 0 1 27 l16 32 -25 -30 c-19 -22 -28 -27 -37
-18 -8 8 -8 16 0 30 11 16 11 16 6 -4 -4 -14 -2 -23 4 -23 6 0 11 4 11 9 0 5
3 17 7 27 5 13 3 15 -7 9 -10 -6 -12 -3 -8 13 4 14 2 20 -4 16 -6 -4 -8 -1 -6
7 3 8 11 13 17 12 6 -2 11 5 11 15 -1 14 -5 12 -25 -10 -14 -16 -25 -23 -27
-16 -3 7 -7 5 -11 -6 -5 -11 -3 -15 5 -10 8 5 9 1 5 -12 -7 -18 -7 -18 8 0 21
27 20 -2 -1 -32 -8 -12 -10 -22 -5 -22 16 0 13 -27 -3 -33 -10 -4 -13 -1 -9 9
4 10 0 12 -11 8 -11 -4 -16 -1 -16 11 0 10 5 14 13 9 6 -4 3 2 -8 13 -19 19
-35 14 -35 -12 0 -5 5 -3 10 5 8 13 10 12 10 -4 0 -13 -4 -16 -17 -11 -10 4
-28 10 -40 12 -26 6 -29 22 -10 43 6 8 3 7 -9 -3 -23 -19 -39 -23 -29 -7 3 6
-1 10 -9 10 -9 0 -16 4 -16 10 0 5 -6 9 -12 7 -8 -1 -12 6 -10 18 l4 20 -17
-20 c-16 -20 -16 -20 -11 5 5 23 4 24 -9 7 -13 -18 -14 -17 -20 4 -6 17 -9 19
-17 8 -7 -10 -8 -8 -5 9 5 23 5 23 -14 6 -12 -11 -19 -13 -19 -5 0 7 -5 9 -12
5 -8 -5 -9 -2 -4 11 5 15 4 16 -9 5 -12 -10 -16 -9 -21 3 -3 10 -12 13 -22 9
-15 -5 -15 -4 -3 11 8 10 11 20 8 23 -12 13 -43 10 -55 -5 -12 -14 -13 -12 -9
12 4 26 4 27 -14 11 -25 -22 -24 -28 6 -44 46 -25 18 -22 -31 3 -27 14 -73 35
-101 48 -29 12 -53 26 -53 30 0 8 86 -27 107 -43 7 -5 16 -7 22 -4 5 3 11 0
13 -6 3 -8 10 -3 18 12 12 23 12 24 -3 11 -14 -11 -17 -11 -17 -1 0 8 -3 11
-6 7 -4 -3 -12 -1 -20 6 -33 30 -41 34 -62 30 -25 -3 -28 6 -9 26 10 11 9 12
-3 5 -21 -12 -40 -14 -40 -3 0 5 -3 8 -7 7 -11 -4 -54 28 -48 34 3 3 -6 3 -21
0 -23 -4 -26 -2 -20 13 5 14 4 16 -7 7 -8 -7 -17 -9 -20 -5 -4 3 -7 0 -7 -8 0
-8 19 -23 41 -34 23 -10 37 -21 32 -22 -5 -2 -34 10 -64 27 -30 16 -47 30 -38
30 9 0 19 9 22 20 5 20 5 20 -23 0 -23 -17 -31 -18 -54 -7 -14 7 -26 15 -26
20 0 10 7 9 30 -5 22 -14 52 -3 56 20 1 7 0 8 -3 2 -7 -15 -21 -12 -43 10 -11
11 -20 16 -20 10 0 -5 -4 -10 -10 -10 -5 0 -6 7 -3 17 4 11 3 14 -5 9 -7 -4
-12 -2 -12 6 0 9 -3 9 -10 -2 -7 -11 -10 -11 -10 -2 0 7 -5 10 -12 6 -8 -5 -9
0 -5 15 6 22 5 23 -15 4 -20 -17 -21 -17 -15 0 7 19 -9 24 -16 5 -4 -10 -6
-10 -6 0 -1 6 -8 12 -16 12 -8 0 -15 5 -15 11 0 5 -5 7 -10 4 -13 -8 -42 14
-35 26 3 4 -4 6 -16 4 -17 -3 -20 0 -16 16 5 17 3 18 -11 7 -14 -11 -15 -10
-9 5 4 11 3 16 -3 12 -6 -3 -10 0 -10 7 0 10 -2 11 -8 0 -12 -18 -45 -4 -37
16 4 12 3 13 -10 2 -12 -10 -15 -10 -15 0 0 7 -9 3 -20 -10 -22 -25 -26 -20
-10 10 13 25 -5 37 -25 16 -16 -16 -20 -31 -7 -22 5 3 9 -1 9 -8 0 -11 -4 -12
-18 -3 -16 10 -16 37 1 37 4 0 11 7 14 16 5 14 4 15 -9 4 -11 -9 -15 -9 -15
-1 0 7 -4 10 -9 7 -5 -4 -12 0 -14 6 -4 8 -6 7 -6 -4 -1 -9 -5 -19 -10 -22 -5
-4 -7 3 -4 13 3 11 0 28 -7 38 -10 15 -11 15 -6 1 3 -12 1 -15 -9 -12 -8 3
-11 13 -7 22 5 15 4 15 -11 3 -9 -7 -17 -10 -17 -5 0 5 -5 2 -11 -6 -9 -12
-10 -10 -6 8 5 20 3 21 -10 10 -14 -11 -15 -10 -8 12 l8 24 -27 -18 c-27 -17
-27 -17 -16 4 7 13 8 20 2 16 -6 -3 -12 -1 -14 5 -4 12 -38 -15 -38 -31 0 -4
24 -19 53 -33 37 -18 56 -22 65 -14 9 7 11 6 6 -7 -4 -10 -13 -15 -20 -12 -25
10 -15 -39 16 -82 16 -23 48 -51 71 -63 23 -11 59 -33 80 -48 21 -16 53 -34
71 -42 18 -7 35 -16 38 -19 3 -3 28 -14 55 -25 47 -17 236 -105 390 -180 39
-19 92 -42 119 -51 27 -9 126 -54 219 -100 93 -46 173 -84 178 -84 5 0 78 -34
161 -76 84 -41 184 -89 221 -105 37 -17 95 -47 128 -67 33 -20 76 -46 94 -57
19 -12 47 -32 62 -45 51 -44 97 -76 161 -110 34 -18 62 -36 62 -41 0 -12 53
-59 66 -59 7 0 15 -7 18 -16 4 -10 13 -13 26 -9 14 5 20 2 20 -10 0 -9 15 -22
35 -31 36 -15 45 -29 23 -36 -9 -3 -9 -6 0 -12 7 -4 12 -2 12 3 0 6 5 11 11
11 5 0 7 -4 4 -10 -3 -6 1 -7 9 -4 18 7 63 -39 72 -73 3 -12 15 -25 25 -28 10
-4 24 -15 29 -25 6 -11 17 -17 25 -14 8 3 24 -4 36 -15 14 -13 30 -19 41 -15
10 3 18 0 18 -6 0 -6 6 -18 14 -26 8 -7 16 -19 18 -25 2 -7 14 -13 26 -14 24
-1 62 -44 63 -72 0 -16 1 -16 9 2 8 19 9 19 9 -2 1 -16 6 -20 20 -16 10 3 22
0 25 -6 5 -7 -2 -11 -16 -12 -19 -1 -18 -2 8 -10 17 -5 37 -16 44 -24 7 -8 23
-15 36 -15 23 0 28 -11 27 -57 -1 -7 5 -13 12 -13 7 0 15 -9 18 -21 4 -15 12
-20 29 -17 17 2 23 -2 22 -14 -1 -10 2 -18 7 -18 5 0 9 -12 9 -27 0 -14 3 -23
7 -19 4 4 7 19 8 33 0 14 6 28 14 31 8 2 11 0 8 -6 -4 -5 3 -23 15 -38 35 -44
46 -55 50 -44 7 21 47 -2 53 -31 4 -18 12 -28 23 -27 9 1 26 0 36 0 20 -2 20
-2 0 -18 -18 -14 -17 -15 14 -11 22 2 32 -1 32 -10 0 -12 13 -17 33 -14 5 1
11 -8 14 -20 4 -15 8 -17 14 -8 10 17 39 -6 39 -32 0 -11 5 -19 10 -19 6 0 10
5 10 10 0 17 17 11 22 -8 3 -10 22 -23 44 -30 22 -6 49 -20 61 -31 11 -11 23
-18 26 -15 2 2 10 -2 17 -11 7 -8 20 -15 29 -15 9 0 27 -18 41 -40 13 -22 31
-40 40 -40 8 0 21 -9 28 -20 7 -11 17 -20 23 -20 6 0 22 -9 36 -20 32 -25 61
-26 80 -2 8 9 11 11 7 3 -4 -8 -1 -19 9 -26 8 -6 15 -20 14 -31 -1 -13 5 -20
23 -22 13 -2 30 -13 38 -23 7 -10 20 -19 29 -19 8 0 27 -13 41 -28 19 -20 41
-31 69 -34 38 -5 65 3 46 15 -5 2 -2 2 5 0 15 -3 76 41 130 94 17 18 33 30 33
28 1 -3 2 -9 3 -14 0 -5 4 -13 9 -17 4 -4 7 307 7 692 -1 609 -3 701 -15 701
-9 0 -14 -6 -13 -13 2 -7 -1 -12 -7 -11 -5 1 -8 11 -7 22 l3 20 -16 -20 c-16
-19 -16 -19 -9 9 5 21 4 27 -5 22 -6 -4 -11 -14 -11 -22 0 -8 -5 -14 -10 -14
-7 0 -7 6 0 20 9 17 8 20 -11 20 -16 0 -20 4 -15 18 5 14 3 13 -10 -3 -16 -19
-16 -19 -12 8 3 15 4 27 2 27 -2 0 -10 -12 -19 -27 l-16 -28 6 28 c3 15 1 27
-5 27 -5 0 -10 -9 -10 -20 0 -11 -5 -20 -10 -20 -6 0 -8 11 -4 25 5 21 3 24
-10 19 -10 -4 -15 -13 -12 -21 3 -8 1 -11 -4 -8 -14 9 -12 32 3 38 7 3 5 6 -5
6 -10 1 -18 -6 -18 -14 0 -8 -4 -15 -9 -15 -4 0 -6 11 -3 25 3 20 1 24 -12 19
-9 -3 -16 -1 -16 6 0 6 -4 9 -10 5 -5 -3 -7 -12 -3 -21 4 -12 1 -13 -20 -3
-15 7 -23 17 -20 25 3 8 1 14 -5 14 -6 0 -13 -6 -15 -12 -3 -8 -6 -6 -6 5 -1
9 4 17 9 17 6 0 10 7 10 15 0 24 -18 17 -35 -12 -16 -28 -16 -14 0 32 6 19 6
19 -8 3 -8 -10 -18 -14 -22 -10 -5 4 -5 1 -1 -5 4 -7 3 -21 -3 -30 -8 -15 -10
-12 -9 14 1 18 7 34 15 37 7 3 13 11 13 18 0 9 -3 9 -12 0 -18 -18 -31 -15
-24 6 4 9 -7 1 -23 -18 -17 -19 -30 -29 -31 -22 0 7 -5 10 -11 6 -6 -3 -3 8 5
25 9 17 13 31 8 31 -5 0 -14 -12 -21 -27 -9 -19 -15 -23 -20 -14 -6 10 -12 9
-25 -4 -16 -16 -17 -16 -10 11 4 16 13 43 21 59 12 26 12 28 0 13 -21 -26 -46
-23 -41 5 2 12 -2 4 -10 -18 -11 -31 -14 -36 -18 -20 -3 12 -5 9 -3 -7 2 -28
-8 -37 -20 -18 -3 6 -14 10 -23 10 -9 0 -26 8 -37 17 l-20 16 20 -8 c36 -14
66 -18 64 -9 -4 23 2 44 12 42 6 -2 14 4 16 12 4 13 3 13 -6 0 -9 -13 -11 -12
-11 4 0 20 0 20 -15 0 -12 -15 -14 -16 -15 -3 0 11 -9 16 -30 16 -22 0 -29 -4
-26 -14 3 -7 1 -13 -4 -13 -14 0 -12 24 2 38 9 9 8 12 -5 12 -11 0 -17 -9 -18
-22 -1 -15 -4 -11 -9 12 l-7 35 -12 -25 c-11 -24 -11 -23 -6 9 5 34 5 34 -15
16 -14 -13 -19 -14 -15 -4 5 14 -32 45 -43 35 -3 -3 0 -6 7 -6 9 0 9 -5 0 -21
-15 -29 -31 -5 -18 28 15 39 10 41 -11 3 -21 -38 -26 -29 -10 17 11 29 6 25
-27 -24 -8 -11 -7 -2 2 22 l15 40 -20 -25 c-11 -14 -20 -29 -20 -33 0 -4 -6
-2 -14 5 -11 11 -11 17 2 38 l16 25 -27 -24 c-27 -24 -33 -20 -28 18 2 7 -2
10 -8 6 -6 -3 -11 -1 -11 5 0 6 -4 8 -10 5 -5 -3 -10 0 -10 7 0 10 -3 9 -10
-2 -6 -9 -5 -17 2 -21 7 -4 7 -9 0 -13 -15 -9 -24 10 -17 37 6 22 6 22 -11 2
-16 -20 -16 -19 -10 5 6 23 6 24 -7 7 -14 -16 -47 -15 -47 2 0 4 -7 8 -15 9
-8 1 -22 3 -30 4 -8 1 -15 5 -15 10 0 4 -6 7 -12 6 -9 -2 -12 8 -11 32 3 31 1
33 -9 15 -6 -11 -12 -21 -13 -23 -1 -1 -9 0 -18 4 -13 5 -14 10 -6 26 9 16 8
19 -2 13 -9 -6 -10 -3 -5 10 5 15 4 16 -9 5 -11 -10 -13 -15 -4 -20 8 -6 8 -9
0 -14 -6 -4 -11 -2 -11 5 0 7 -3 10 -6 6 -9 -9 -64 21 -64 36 0 9 3 8 9 -1 7
-11 9 -11 14 1 8 22 -20 30 -32 9 -15 -25 -14 4 1 31 10 20 10 21 -5 8 -10 -7
-17 -21 -18 -30 0 -9 -3 -11 -5 -4 -3 7 0 22 7 35 11 21 11 22 -4 9 -14 -11
-17 -11 -17 0 0 8 -9 1 -20 -16 -26 -39 -25 -45 5 -45 14 0 25 -5 25 -10 0 -6
3 -9 8 -8 12 3 78 -35 66 -39 -9 -3 -120 46 -209 94 -16 8 -60 31 -98 50 -41
21 -65 38 -61 45 4 7 2 8 -5 4 -16 -10 -111 26 -227 85 -55 28 -103 55 -109
58 -5 4 -32 16 -60 26 -27 10 -57 23 -65 29 -8 7 -159 83 -335 170 -479 238
-503 250 -595 300 -47 26 -97 51 -112 57 -14 6 -119 55 -233 110 -198 94 -226
107 -212 93z m437 -561 c11 -10 5 -9 -20 3 -45 22 -52 28 -20 19 14 -4 32 -14
40 -22z m35 -13 c3 -5 1 -10 -4 -10 -6 0 -11 5 -11 10 0 6 2 10 4 10 3 0 8 -4
11 -10z m-1088 -42 c-3 -8 -6 -5 -6 6 -1 11 2 17 5 13 3 -3 4 -12 1 -19z
m1413 -123 c17 -9 30 -18 30 -21 0 -4 -59 23 -69 32 -10 9 13 3 39 -11z
m-1113 -21 c-6 -6 -47 9 -47 17 0 5 11 3 25 -3 14 -6 24 -13 22 -14z m73 -34
c0 -5 -4 -10 -10 -10 -5 0 -10 5 -10 10 0 6 5 10 10 10 6 0 10 -4 10 -10z
m1170 -10 c8 -5 11 -10 5 -10 -5 0 -17 5 -25 10 -8 5 -10 10 -5 10 6 0 17 -5
25 -10z m-1133 -6 c-3 -3 -12 -4 -19 -1 -8 3 -5 6 6 6 11 1 17 -2 13 -5z
m1793 -64 c8 -5 11 -10 5 -10 -5 0 -17 5 -25 10 -8 5 -10 10 -5 10 6 0 17 -5
25 -10z m-706 -37 c19 -9 37 -22 40 -29 4 -11 -77 25 -93 41 -10 11 20 4 53
-12z m1021 -63 c3 -5 2 -10 -4 -10 -5 0 -13 5 -16 10 -3 6 -2 10 4 10 5 0 13
-4 16 -10z m183 -88 c56 -29 102 -55 102 -57 0 -8 -102 35 -138 57 -18 11 -55
31 -83 44 -27 13 -49 26 -49 29 0 8 67 -21 168 -73z m-1364 54 c-6 -17 -34
-30 -34 -16 0 5 8 14 18 19 22 13 22 13 16 -3z m541 -16 c3 -5 2 -10 -4 -10
-5 0 -13 5 -16 10 -3 6 -2 10 4 10 5 0 13 -4 16 -10z m966 -13 c-10 -9 -11 -8
-5 6 3 10 9 15 12 12 3 -3 0 -11 -7 -18z m-1500 -14 c-8 -15 -10 -15 -11 -2 0
17 10 32 18 25 2 -3 -1 -13 -7 -23z m90 -16 c-10 -9 -11 -8 -5 6 3 10 9 15 12
12 3 -3 0 -11 -7 -18z m515 7 c18 -15 18 -15 -11 -9 -37 8 -57 25 -29 25 11 0
29 -7 40 -16z m-976 -34 c0 -5 -2 -10 -4 -10 -3 0 -8 5 -11 10 -3 6 -1 10 4
10 6 0 11 -4 11 -10z m495 -39 c-3 -6 -11 -11 -17 -11 -6 0 -6 6 2 15 14 17
26 13 15 -4z m1111 0 c0 -11 -5 -17 -13 -14 -17 6 -17 20 0 26 6 3 12 6 12 6
1 1 1 -7 1 -18z m-486 -1 c13 -8 13 -10 -2 -10 -9 0 -20 5 -23 10 -8 13 5 13
25 0z m580 -20 c19 -11 29 -19 21 -20 -11 0 -11 -3 0 -17 8 -10 -4 -3 -26 14
-22 17 -49 33 -60 36 -16 4 -15 5 5 5 14 1 41 -7 60 -18z m357 -12 c17 -19 16
-19 -24 2 -24 12 -43 23 -43 25 0 10 52 -11 67 -27z m-1511 0 c-21 -30 -20
-49 2 -41 14 5 15 3 5 -8 -22 -22 -14 -33 9 -13 20 18 21 18 15 1 -5 -13 -3
-17 5 -14 7 2 12 13 10 23 -2 15 -1 16 7 5 6 -9 3 -29 -10 -59 -11 -25 -18
-50 -15 -56 3 -6 8 -1 12 12 4 13 12 21 19 18 8 -3 16 2 19 11 4 9 9 13 12 10
9 -9 -43 -84 -63 -89 -22 -6 -24 22 -3 71 16 39 3 59 -28 42 -18 -9 -19 -8
-15 12 4 21 4 22 -11 3 -21 -26 -20 -36 4 -31 22 4 25 -2 10 -25 -9 -13 -10
-13 -10 0 0 13 -1 13 -10 0 -10 -16 -50 -23 -50 -8 0 5 -5 6 -11 2 -14 -8 -12
-3 25 64 16 28 35 52 42 52 7 0 16 9 19 20 3 11 11 20 16 20 6 0 3 -10 -5 -22z
m16 -20 c-7 -7 -12 -8 -12 -2 0 14 12 26 19 19 2 -3 -1 -11 -7 -17z m1628 -45
c22 -10 40 -21 40 -25 0 -9 -70 18 -84 33 -15 14 -1 11 44 -8z m-1795 -23
c-10 -11 -20 -18 -23 -15 -7 6 18 35 31 35 5 0 2 -9 -8 -20z m227 -9 c-22 -22
-27 -19 -12 8 6 12 15 19 20 16 5 -3 2 -14 -8 -24z m1658 19 c0 -5 -5 -10 -11
-10 -5 0 -7 5 -4 10 3 6 8 10 11 10 2 0 4 -4 4 -10z m-1725 -49 c-9 -18 -13
-36 -10 -41 3 -6 1 -10 -4 -10 -6 0 -11 5 -11 10 0 19 30 83 36 77 3 -3 -2
-19 -11 -36z m117 -3 c-21 -21 -21 -21 -19 -1 0 13 6 19 14 16 7 -3 13 1 13 8
0 7 3 9 7 5 4 -3 -3 -16 -15 -28z m772 -3 c11 -8 15 -15 10 -15 -6 0 -19 7
-30 15 -10 8 -14 14 -9 14 6 0 19 -6 29 -14z m-749 -14 c-3 -6 -11 -11 -17
-11 -6 0 -6 6 2 15 14 17 26 13 15 -4z m-179 -18 c-10 -10 -19 5 -10 18 6 11
8 11 12 0 2 -7 1 -15 -2 -18z m245 4 c-10 -9 -11 -8 -5 6 3 10 9 15 12 12 3
-3 0 -11 -7 -18z m-110 -1 c12 7 11 0 -2 -30 -7 -14 -19 -24 -29 -23 -17 1
-17 3 -2 35 9 18 18 29 20 23 2 -6 8 -9 13 -5z m1806 -8 c-3 -8 -6 -5 -6 6 -1
11 2 17 5 13 3 -3 4 -12 1 -19z m-1757 -8 c-6 -11 -15 -18 -21 -15 -5 4 -9 4
-9 1 0 -2 -3 -13 -7 -23 -6 -16 -5 -17 12 -3 17 14 18 14 5 -10 -8 -15 -15
-20 -18 -12 -2 6 -8 9 -14 6 -5 -3 -2 8 7 25 9 18 20 29 24 26 5 -3 11 2 15
10 3 8 8 15 11 15 3 0 1 -9 -5 -20z m33 -35 c-3 -9 -8 -14 -10 -11 -3 3 -2 9
2 15 9 16 15 13 8 -4z m1227 -62 c0 -9 -15 -6 -56 12 -31 14 -58 25 -60 25 -2
0 -4 6 -4 14 0 11 14 9 60 -11 33 -15 60 -32 60 -40z m631 34 c-10 -9 -11 -8
-5 6 3 10 9 15 12 12 3 -3 0 -11 -7 -18z m-1819 -6 c-4 -10 -7 -11 -10 -3 -2
7 -8 10 -13 6 -5 -3 -9 -1 -9 5 0 5 9 9 19 8 12 -1 17 -6 13 -16z m19 -8 c-12
-20 -14 -14 -5 12 4 9 9 14 11 11 3 -2 0 -13 -6 -23z m-83 3 c-7 -8 -15 -12
-17 -11 -5 6 10 25 20 25 5 0 4 -6 -3 -14z m1916 -1 c-4 -8 -8 -15 -10 -15 -2
0 -4 7 -4 15 0 8 4 15 10 15 5 0 7 -7 4 -15z m67 -48 c-8 -8 -11 -7 -11 4 0 9
3 19 7 23 4 4 9 2 11 -4 3 -7 -1 -17 -7 -23z m-1911 19 c0 -3 -4 -8 -10 -11
-5 -3 -10 -1 -10 4 0 6 5 11 10 11 6 0 10 -2 10 -4z m64 -18 c-6 -21 -5 -22
12 -8 15 11 16 11 7 0 -17 -18 -17 -38 -1 -22 7 7 16 12 22 12 5 0 1 -7 -10
-15 -17 -12 -20 -12 -30 1 -7 8 -17 13 -24 12 -7 -2 -15 3 -18 11 -3 10 0 12
12 8 10 -4 19 -1 22 8 10 24 16 17 8 -7z m103 -30 c-3 -8 -6 -5 -6 6 -1 11 2
17 5 13 3 -3 4 -12 1 -19z m1883 -3 c0 -8 -4 -15 -10 -15 -5 0 -7 7 -4 15 4 8
8 15 10 15 2 0 4 -7 4 -15z m-1848 -59 c7 4 8 2 4 -5 -9 -13 -26 -5 -25 12 0
9 2 8 6 -1 2 -6 10 -9 15 -6z m2005 -48 c-3 -8 -6 -5 -6 6 -1 11 2 17 5 13 3
-3 4 -12 1 -19z"/>
<path d="M7466 7827 c-28 -46 -32 -62 -16 -52 6 3 10 1 10 -5 0 -6 5 -8 10 -5
6 3 10 11 10 16 0 6 -4 7 -10 4 -15 -9 -12 0 11 40 12 20 19 38 16 41 -3 3
-17 -14 -31 -39z"/>
<path d="M7576 7745 c-9 -26 -7 -32 5 -12 6 10 9 21 6 23 -2 3 -7 -2 -11 -11z"/>
<path d="M7606 7714 c-4 -9 -4 -19 -1 -22 2 -3 7 3 11 12 4 9 4 19 1 22 -2 3
-7 -3 -11 -12z"/>
<path d="M6997 9063 c-4 -3 -7 -11 -7 -17 0 -6 5 -5 12 2 6 6 9 14 7 17 -3 3
-9 2 -12 -2z"/>
<path d="M6920 9019 c-7 -11 -10 -23 -7 -25 2 -2 9 7 15 21 14 30 7 33 -8 4z"/>
<path d="M6946 9015 c-16 -25 -23 -57 -8 -39 10 11 33 64 28 64 -2 0 -11 -11
-20 -25z"/>
<path d="M6972 9010 c-7 -11 -12 -28 -12 -37 1 -10 7 -3 16 16 16 38 14 50 -4
21z"/>
<path d="M6995 8995 c-3 -8 -7 -22 -10 -30 -7 -22 8 -18 23 6 10 16 10 19 1
13 -9 -5 -10 -2 -6 9 3 10 4 17 1 17 -2 0 -7 -7 -9 -15z"/>
<path d="M7027 8970 c-10 -16 -16 -30 -13 -30 2 0 14 14 26 30 12 17 18 30 13
30 -5 0 -17 -13 -26 -30z"/>
<path d="M7065 8983 c-9 -20 -16 -63 -10 -63 6 0 25 73 21 77 -2 2 -7 -4 -11
-14z"/>
<path d="M7091 8954 c-12 -20 -20 -38 -18 -40 2 -2 14 14 26 36 28 50 21 53
-8 4z"/>
<path d="M10196 8963 c-6 -14 -5 -15 5 -6 7 7 10 15 7 18 -3 3 -9 -2 -12 -12z"/>
<path d="M7106 8929 c-10 -17 -16 -33 -13 -35 3 -3 12 9 21 27 9 18 15 34 13
35 -2 2 -11 -10 -21 -27z"/>
<path d="M7130 8925 c-6 -8 -10 -21 -8 -31 2 -11 7 -6 15 15 13 34 11 38 -7
16z"/>
<path d="M7146 8898 c-10 -38 -7 -42 14 -23 23 21 26 45 6 45 -7 0 -16 -10
-20 -22z"/>
<path d="M7336 8903 c-6 -14 -5 -15 5 -6 7 7 10 15 7 18 -3 3 -9 -2 -12 -12z"/>
<path d="M7361 8887 c-13 -21 -12 -21 5 -5 10 10 16 20 13 22 -3 3 -11 -5 -18
-17z"/>
<path d="M7180 8881 c-11 -21 -7 -41 8 -41 4 0 16 15 26 33 l18 32 -26 -28
c-14 -15 -26 -24 -26 -20 0 5 5 14 12 21 6 6 9 14 6 18 -4 3 -11 -4 -18 -15z"/>
<path d="M7252 8878 c-6 -13 -11 -17 -11 -9 -1 11 -5 10 -16 -5 -19 -26 -19
-43 1 -18 14 18 15 18 9 -6 -4 -18 1 -13 15 13 12 22 20 41 17 43 -2 2 -9 -6
-15 -18z"/>
<path d="M7276 8863 c-6 -14 -5 -15 5 -6 7 7 10 15 7 18 -3 3 -9 -2 -12 -12z"/>
<path d="M6821 8856 c11 -9 113 -56 104 -48 -15 15 -84 52 -97 52 -6 0 -9 -2
-7 -4z"/>
<path d="M7290 8845 c-6 -8 -10 -21 -8 -31 2 -11 7 -6 15 15 13 34 11 38 -7
16z"/>
<path d="M7256 8823 c-6 -14 -5 -15 5 -6 7 7 10 15 7 18 -3 3 -9 -2 -12 -12z"/>
<path d="M7343 8803 c-3 -10 -8 -22 -10 -28 -3 -5 3 -1 11 9 16 20 21 36 11
36 -3 0 -8 -8 -12 -17z"/>
<path d="M7357 8781 c-5 -22 1 -33 14 -25 12 7 12 44 0 44 -5 0 -11 -9 -14
-19z"/>
<path d="M7393 8781 c0 -11 5 -18 9 -15 4 3 5 11 1 19 -7 21 -12 19 -10 -4z"/>
<path d="M7472 8745 c-17 -37 -14 -45 4 -12 9 16 14 31 11 33 -2 2 -9 -7 -15
-21z"/>
<path d="M7416 8745 c-3 -8 -1 -15 4 -15 6 0 10 7 10 15 0 8 -2 15 -4 15 -2 0
-6 -7 -10 -15z"/>
<path d="M7443 8745 c-3 -9 -3 -18 -1 -21 3 -3 8 4 11 16 6 23 -1 27 -10 5z"/>
<path d="M7585 8729 c-4 -6 -5 -12 -2 -15 2 -3 7 2 10 11 7 17 1 20 -8 4z"/>
<path d="M7500 8708 c-12 -22 -12 -22 6 -6 10 10 15 20 12 24 -4 3 -12 -5 -18
-18z"/>
<path d="M7557 8723 c-4 -3 -7 -11 -7 -17 0 -6 5 -5 12 2 6 6 9 14 7 17 -3 3
-9 2 -12 -2z"/>
<path d="M7590 8690 c-11 -22 -17 -40 -13 -40 5 0 16 18 25 40 21 52 14 52
-12 0z"/>
<path d="M7616 8684 c-10 -14 -16 -30 -14 -35 2 -6 11 6 21 25 20 42 16 47 -7
10z"/>
<path d="M7551 8674 c0 -11 3 -14 6 -6 3 7 2 16 -1 19 -3 4 -6 -2 -5 -13z"/>
<path d="M7649 8677 c-17 -14 -32 -47 -21 -47 4 0 16 14 25 30 20 33 19 35 -4
17z"/>
<path d="M7684 8678 c-4 -7 -14 -23 -22 -35 -8 -13 -10 -23 -5 -23 5 0 17 16
26 35 16 33 16 49 1 23z"/>
<path d="M7724 8659 c-4 -7 -8 -25 -10 -41 -3 -24 -2 -27 10 -16 7 7 18 25 25
38 l12 25 -20 -25 c-22 -27 -28 -21 -11 11 11 20 6 27 -6 8z"/>
<path d="M7691 8642 c-13 -25 -14 -42 -2 -42 8 0 23 52 16 58 -2 2 -8 -5 -14
-16z"/>
<path d="M7750 8610 c-11 -22 -17 -40 -13 -40 5 0 16 18 25 40 21 52 14 52
-12 0z"/>
<path d="M7776 8604 c-10 -14 -15 -33 -13 -42 3 -12 5 -11 6 5 0 12 6 25 13
29 8 5 9 0 6 -14 -4 -14 -2 -20 4 -16 6 4 8 -2 3 -17 -9 -28 -3 -24 15 10 8
15 8 21 1 17 -6 -4 -11 -3 -11 3 0 5 8 15 18 21 15 10 14 11 -6 6 -18 -3 -22
-1 -18 10 8 22 0 17 -18 -12z"/>
<path d="M7830 8570 c-23 -45 -24 -50 -10 -50 6 0 10 7 10 15 0 9 7 29 15 45
9 17 13 30 10 30 -2 0 -14 -18 -25 -40z"/>
<path d="M8096 8575 c-9 -26 -7 -32 5 -12 6 10 9 21 6 23 -2 3 -7 -2 -11 -11z"/>
<path d="M5826 8565 c-3 -9 -6 -18 -6 -19 0 -1 11 -3 25 -4 17 -1 25 3 25 14
0 9 -5 12 -11 8 -6 -3 -15 -1 -19 6 -5 8 -9 7 -14 -5z"/>
<path d="M7852 8555 c-14 -31 -16 -63 -3 -49 9 10 25 74 18 74 -2 0 -9 -11
-15 -25z"/>
<path d="M7895 8561 c-3 -12 -11 -21 -16 -21 -5 0 -9 -10 -9 -22 0 -18 4 -15
21 16 11 21 18 40 16 43 -3 2 -8 -5 -12 -16z"/>
<path d="M8030 8559 c0 -5 5 -7 10 -4 6 3 10 8 10 11 0 2 -4 4 -10 4 -5 0 -10
-5 -10 -11z"/>
<path d="M8145 8539 c-4 -6 -5 -12 -2 -15 2 -3 7 2 10 11 7 17 1 20 -8 4z"/>
<path d="M7900 8521 c-12 -24 -13 -34 -1 -27 9 6 22 46 15 46 -2 0 -8 -9 -14
-19z"/>
<path d="M7933 8528 c-23 -29 -19 -43 19 -66 21 -13 43 -20 48 -17 6 3 10 -2
11 -12 0 -14 2 -13 10 5 5 13 13 21 19 17 6 -3 7 1 4 10 -6 14 -8 14 -20 -2
-16 -22 -18 -10 -3 20 10 22 10 22 -10 0 -27 -32 -34 -28 -16 10 14 28 14 30
0 13 -8 -11 -15 -24 -15 -29 0 -7 -38 0 -49 9 -2 2 1 15 7 29 13 27 10 32 -5
13z"/>
<path d="M7948 8508 c-5 -11 -2 -15 10 -14 9 2 18 9 20 17 3 12 2 12 -6 0 -8
-11 -10 -11 -14 0 -3 10 -6 9 -10 -3z"/>
<path d="M9686 8503 c-6 -14 -5 -15 5 -6 7 7 10 15 7 18 -3 3 -9 -2 -12 -12z"/>
<path d="M8066 8449 c-8 -12 -19 -18 -25 -14 -6 3 -11 2 -11 -4 0 -11 88 -55
108 -54 6 0 12 -4 12 -10 0 -6 6 -2 14 9 8 10 12 21 10 24 -3 2 -10 -2 -15
-10 -8 -11 -9 -10 -4 8 4 13 2 22 -4 22 -6 0 -11 -6 -11 -14 0 -8 -5 -18 -12
-22 -8 -5 -9 3 -5 27 5 30 4 31 -5 12 -6 -13 -15 -23 -20 -23 -4 0 -8 10 -8
23 0 18 -2 19 -10 7 -9 -13 -10 -13 -10 1 0 8 5 20 12 27 7 7 9 12 6 12 -4 0
-14 -9 -22 -21z"/>
<path d="M7200 8415 c7 -8 17 -15 22 -15 6 0 5 7 -2 15 -7 8 -17 15 -22 15 -6
0 -5 -7 2 -15z"/>
<path d="M8189 8393 c-7 -16 -15 -31 -17 -35 -2 -5 0 -8 5 -8 9 0 35 61 29 67
-1 2 -9 -9 -17 -24z"/>
<path d="M8221 8354 c-12 -20 -16 -34 -10 -32 10 3 43 68 35 68 -2 0 -14 -16
-25 -36z"/>
<path d="M8205 8369 c-4 -6 -5 -12 -2 -15 2 -3 7 2 10 11 7 17 1 20 -8 4z"/>
<path d="M8270 8345 c-13 -35 -13 -38 9 -52 16 -10 20 -8 30 13 16 36 13 42
-8 15 l-18 -23 0 31 c0 20 3 27 9 19 5 -9 8 -10 8 -1 0 25 -20 23 -30 -2z"/>
<path d="M8247 8353 c-4 -3 -7 -16 -6 -27 0 -19 1 -19 10 3 10 24 8 36 -4 24z"/>
<path d="M8326 8309 c-11 -18 -14 -29 -8 -25 6 3 13 -2 15 -11 3 -11 5 -9 5 7
-1 14 3 33 7 43 12 28 1 20 -19 -14z"/>
<path d="M6880 8305 c-7 -8 -9 -15 -5 -15 5 0 0 -10 -11 -22 -19 -23 -19 -23
2 -5 11 9 23 14 26 11 3 -3 9 0 14 7 4 8 3 10 -4 5 -16 -9 -15 7 0 22 8 8 8
12 1 12 -6 0 -16 -7 -23 -15z"/>
<path d="M8354 8305 c-3 -8 -4 -20 -2 -27 3 -7 7 -1 10 15 6 29 1 36 -8 12z"/>
<path d="M6845 8290 c3 -5 8 -10 11 -10 2 0 4 5 4 10 0 6 -5 10 -11 10 -5 0
-7 -4 -4 -10z"/>
<path d="M8375 8274 c-8 -9 -15 -20 -15 -25 0 -17 17 -9 29 14 11 21 11 21 6
-5 -3 -16 -1 -28 4 -28 5 0 11 11 13 24 6 30 -15 41 -37 20z"/>
<path d="M8430 8261 c-10 -20 -14 -59 -5 -49 7 7 25 68 20 68 -3 0 -9 -9 -15
-19z"/>
<path d="M8451 8248 c-1 -9 -4 -23 -7 -31 -8 -22 28 -31 43 -11 15 21 17 38 3
29 -5 -3 -10 -1 -10 5 0 6 -4 9 -9 6 -5 -4 -12 0 -14 6 -4 8 -6 7 -6 -4z m21
-40 c-7 -7 -12 -8 -12 -2 0 14 12 26 19 19 2 -3 -1 -11 -7 -17z"/>
<path d="M7028 8200 c-34 -61 -29 -66 7 -7 17 26 25 33 22 19 -3 -13 -1 -20 5
-16 6 4 8 -2 3 -16 -5 -17 -4 -21 6 -15 9 6 11 3 6 -8 -11 -28 0 -19 22 18 11
19 16 35 11 35 -6 0 -10 -4 -10 -10 0 -18 -26 1 -36 25 -9 24 -10 24 -36 -25z"/>
<path d="M7012 8220 c-7 -11 -8 -20 -3 -20 9 0 24 30 18 36 -1 2 -8 -6 -15
-16z"/>
<path d="M8506 8215 c-20 -30 -20 -35 -1 -35 8 0 15 -4 15 -10 0 -5 3 -9 8 -9
9 2 61 -18 105 -40 l34 -17 11 30 c7 16 10 32 7 34 -2 3 -9 -8 -15 -23 -6 -15
-13 -25 -16 -22 -3 3 -1 14 5 25 6 12 11 23 11 27 0 12 -22 -8 -31 -29 -8 -17
-8 -16 -3 9 5 29 5 29 -15 11 -21 -19 -21 -19 -16 15 4 27 4 30 -4 13 -14 -32
-36 -43 -29 -16 4 12 2 22 -2 22 -5 0 -11 -8 -13 -17 -4 -16 -5 -16 -6 1 -1
16 -3 17 -17 5 -15 -13 -17 -11 -12 19 2 17 4 32 2 32 -1 0 -9 -11 -18 -25z"/>
<path d="M6956 8203 c-6 -14 -5 -15 5 -6 7 7 10 15 7 18 -3 3 -9 -2 -12 -12z"/>
<path d="M7123 8188 c-12 -15 -24 -48 -18 -48 2 0 10 14 19 30 15 32 15 38 -1
18z"/>
<path d="M7036 8163 c-6 -14 -5 -15 5 -6 7 7 10 15 7 18 -3 3 -9 -2 -12 -12z"/>
<path d="M8687 8126 c-4 -10 -3 -15 3 -11 6 3 10 1 10 -4 0 -6 -4 -11 -10 -11
-5 0 -10 -4 -10 -10 0 -5 7 -10 15 -10 8 0 15 -6 15 -12 1 -15 29 32 29 47 0
6 -7 1 -16 -10 -15 -20 -15 -20 -10 3 3 12 1 20 -3 17 -5 -3 -10 0 -12 7 -3 7
-7 5 -11 -6z"/>
<path d="M8742 8084 c-11 -26 -11 -27 2 -11 10 13 15 14 18 6 3 -9 7 -7 11 5
4 9 3 15 -2 11 -5 -3 -11 0 -13 6 -2 6 -9 -2 -16 -17z"/>
<path d="M8765 8066 c-16 -16 -25 -26 -18 -23 6 4 15 2 18 -4 4 -5 13 -8 21
-5 8 3 14 1 14 -4 0 -19 15 -10 27 16 12 25 11 25 -5 11 -12 -11 -22 -13 -32
-7 -14 9 -13 11 9 14 5 0 13 5 18 10 4 5 3 6 -4 2 -6 -3 -13 -1 -15 6 -2 8
-14 2 -33 -16z"/>
<path d="M7122 8060 c-18 -29 -15 -38 4 -12 9 13 14 25 12 27 -2 2 -9 -5 -16
-15z"/>
<path d="M7201 8035 c-29 -62 -26 -71 5 -12 14 27 23 51 21 53 -2 3 -14 -16
-26 -41z"/>
<path d="M7136 8034 c-5 -14 -4 -15 9 -4 17 14 19 20 6 20 -5 0 -12 -7 -15
-16z"/>
<path d="M8947 8014 c-11 -11 -8 -36 3 -29 6 3 10 1 10 -5 0 -18 17 -3 23 20
4 17 3 19 -8 10 -9 -8 -14 -8 -17 0 -2 6 -7 8 -11 4z"/>
<path d="M7040 7989 c0 -5 5 -7 10 -4 6 3 10 8 10 11 0 2 -4 4 -10 4 -5 0 -10
-5 -10 -11z"/>
<path d="M7356 7963 c-6 -14 -5 -15 5 -6 7 7 10 15 7 18 -3 3 -9 -2 -12 -12z"/>
<path d="M7262 7925 c-30 -62 -27 -71 4 -12 14 27 24 51 22 53 -3 2 -14 -17
-26 -41z"/>
<path d="M9070 7941 c-13 -25 -13 -28 3 -28 6 0 12 11 12 24 0 28 -1 28 -15 4z"/>
<path d="M9110 7929 c-7 -11 -10 -23 -7 -25 2 -2 9 7 15 21 14 30 7 33 -8 4z"/>
<path d="M9130 7921 c-12 -24 -13 -34 -1 -26 5 3 16 -1 24 -9 14 -15 27 -12
27 6 0 5 -5 6 -12 2 -8 -5 -9 -2 -4 11 6 16 4 16 -11 4 -15 -13 -16 -12 -11 9
7 27 2 29 -12 3z"/>
<path d="M7275 7899 c-9 -17 -15 -33 -13 -35 3 -2 12 12 21 31 21 43 13 47 -8
4z"/>
<path d="M9292 7840 c-7 -11 -8 -20 -3 -20 9 0 24 30 18 36 -1 2 -8 -6 -15
-16z"/>
<path d="M9327 7813 c-4 -3 -7 -11 -7 -17 0 -6 5 -5 12 2 6 6 9 14 7 17 -3 3
-9 2 -12 -2z"/>
<path d="M9685 7669 c-4 -6 -5 -12 -2 -15 2 -3 7 2 10 11 7 17 1 20 -8 4z"/>
<path d="M9706 7621 c-5 -8 -3 -17 5 -21 15 -10 29 -4 29 11 0 6 -4 8 -9 5 -5
-4 -11 -1 -13 6 -3 9 -6 9 -12 -1z"/>
<path d="M9772 7599 c-7 -12 -11 -24 -7 -27 7 -8 25 17 25 36 0 17 -3 15 -18
-9z"/>
<path d="M9906 7585 c-3 -8 -1 -15 4 -15 6 0 10 7 10 15 0 8 -2 15 -4 15 -2 0
-6 -7 -10 -15z"/>
<path d="M9927 7523 c-4 -3 -7 -13 -7 -22 1 -13 3 -13 11 2 11 19 8 33 -4 20z"/>
<path d="M5032 6374 c-102 -52 -118 -175 -34 -266 82 -87 212 -60 279 58 41
71 22 144 -50 198 -38 28 -148 34 -195 10z"/>
<path d="M9475 6201 c-6 -11 9 -23 19 -14 9 9 7 23 -3 23 -6 0 -12 -4 -16 -9z"/>
<path d="M3804 5810 c-38 -15 -64 -59 -64 -107 0 -38 5 -50 34 -79 l34 -34
534 0 c333 0 547 4 570 10 73 21 107 94 73 160 -32 61 -21 60 -617 59 -299 0
-553 -4 -564 -9z"/>
<path d="M5304 5811 c-58 -14 -104 -63 -104 -111 0 -26 48 -80 87 -96 26 -11
136 -14 553 -14 566 0 554 -1 599 56 26 34 27 70 1 112 -38 62 -36 62 -597 61
-279 -1 -522 -4 -539 -8z"/>
<path d="M7411 5760 c0 -8 10 -55 24 -104 55 -199 70 -322 70 -581 0 -288 -15
-400 -82 -615 -98 -316 -276 -639 -496 -897 -93 -108 -251 -247 -405 -355
-302 -211 -599 -333 -972 -400 -148 -26 -545 -37 -712 -18 -316 34 -518 93
-832 244 -174 84 -167 82 -148 43 15 -32 23 -43 81 -105 17 -19 31 -40 31 -48
0 -8 6 -14 14 -14 8 0 24 -14 36 -30 12 -17 26 -28 31 -25 5 4 9 0 9 -8 0 -7
38 -53 85 -102 47 -49 85 -93 85 -97 0 -4 5 -8 11 -8 7 0 31 -18 55 -40 24
-22 48 -40 54 -40 6 0 8 -5 5 -10 -3 -6 1 -10 9 -10 9 0 16 -4 16 -8 0 -5 18
-18 40 -31 37 -21 69 -44 111 -84 10 -9 19 -14 19 -11 0 4 7 1 15 -6 28 -23
306 -161 314 -155 5 2 14 -2 21 -10 7 -8 22 -15 34 -15 11 0 30 -7 40 -15 11
-8 35 -15 53 -15 18 0 33 -4 33 -8 0 -5 28 -14 63 -20 130 -26 143 -29 164
-40 12 -7 37 -12 56 -12 20 0 37 -6 40 -14 3 -7 20 -16 39 -20 116 -23 164
-29 257 -30 116 -1 119 0 193 79 21 22 38 34 38 27 0 -6 -6 -12 -12 -12 -39
-1 29 -20 112 -31 52 -7 99 -16 104 -21 6 -4 22 -8 37 -8 15 0 31 -5 34 -10 4
-7 66 -9 178 -5 95 3 230 7 300 8 89 1 130 6 135 15 6 8 24 11 56 8 41 -4 52
-1 72 19 15 15 30 21 43 18 12 -3 27 2 36 11 9 9 23 16 31 16 8 0 14 4 14 10
0 5 11 12 24 16 14 3 27 12 30 20 3 8 14 14 25 14 30 0 51 11 51 27 0 10 6 12
20 8 13 -4 23 0 32 14 7 12 20 21 28 21 9 0 33 16 53 35 20 19 43 35 50 35 7
0 35 22 61 50 26 28 52 50 57 50 5 0 9 9 9 19 0 17 15 35 30 36 15 1 48 34 58
60 7 17 41 61 75 97 34 37 70 78 80 92 10 14 24 26 32 26 8 0 15 5 15 10 0 6
-5 10 -11 10 -8 0 -8 5 1 15 7 8 19 15 26 15 8 0 17 12 20 28 3 15 21 38 40
52 18 14 34 33 34 43 0 9 5 17 10 17 6 0 10 7 10 15 0 8 4 15 10 15 5 0 12 11
16 25 3 13 15 27 25 30 11 4 19 16 19 28 0 13 18 58 40 100 22 43 39 81 39 85
-2 13 13 52 20 52 4 0 15 19 25 43 11 23 26 51 35 61 9 11 10 16 4 12 -20 -11
-15 6 11 45 14 20 28 53 31 75 4 21 13 58 21 82 8 23 14 82 14 131 0 53 6 106
15 131 8 23 15 53 15 66 0 13 4 24 8 24 11 0 11 36 -1 123 -6 42 -15 78 -21
79 -32 4 -42 3 -48 -6 -4 -6 -9 -8 -12 -5 -3 3 32 38 79 77 47 40 85 78 85 86
0 23 -41 107 -55 112 -7 3 -16 25 -20 49 -3 25 -10 47 -16 50 -5 4 -9 15 -9
26 0 11 -5 30 -12 42 -7 12 -12 31 -13 42 0 13 -8 21 -21 23 -19 3 -21 8 -17
42 4 31 2 39 -12 42 -11 2 -19 14 -21 33 -2 16 -8 31 -14 33 -5 2 -10 9 -10
15 0 22 -78 172 -99 191 -11 11 -21 29 -21 40 -1 21 -62 96 -80 96 -5 0 -13
12 -16 26 -4 15 -12 23 -19 20 -8 -3 -16 5 -19 19 -3 13 -13 31 -22 39 -9 9
-33 39 -54 68 -33 43 -152 178 -212 240 -10 10 -25 18 -33 18 -8 0 -17 11 -21
25 -3 14 -18 30 -35 37 -16 7 -29 15 -29 19 0 3 -8 14 -18 25 -11 11 -22 26
-25 34 -5 13 -6 13 -6 0z"/>
<path d="M4645 5350 c-88 -4 -312 -8 -498 -9 -210 0 -346 -5 -358 -11 -27 -15
-49 -62 -49 -106 0 -28 8 -44 34 -70 l35 -35 252 7 251 7 -6 -24 c-12 -40
-124 -257 -171 -330 -53 -82 -185 -216 -275 -279 -35 -25 -84 -63 -108 -86
-38 -35 -44 -45 -38 -67 9 -36 87 -117 112 -117 42 0 156 67 306 180 112 84
352 443 417 624 l36 100 168 -3 168 -3 34 37 c27 28 35 45 35 74 0 70 -66 123
-147 119 -21 -1 -110 -5 -198 -8z"/>
<path d="M5335 5335 c-39 -18 -55 -32 -90 -79 l-30 -39 -3 -418 c-3 -463 -6
-442 63 -511 64 -63 60 -63 590 -63 462 0 481 1 514 20 50 30 73 66 74 116 0
24 -5 227 -11 451 -9 393 -11 408 -32 443 -12 19 -38 48 -58 63 l-35 27 -476
2 c-396 2 -481 0 -506 -12z m841 -209 c12 -5 26 -533 17 -636 l-6 -60 -358 0
-358 0 -13 23 c-17 32 -18 664 -1 675 13 8 697 5 719 -2z"/>
<path d="M5795 4880 c-104 -4 -171 -12 -190 -21 -27 -13 -30 -19 -33 -71 -5
-98 -17 -93 242 -92 261 0 256 -1 264 86 3 42 0 58 -15 77 -23 29 -54 31 -268
21z"/>
<path d="M4512 4823 c-7 -3 -31 -32 -53 -64 l-40 -60 24 -42 c58 -99 332 -378
404 -412 47 -22 74 -10 113 52 47 74 42 102 -32 180 -35 36 -108 100 -163 143
-55 43 -129 108 -165 144 -35 36 -67 66 -70 65 -3 0 -11 -3 -18 -6z"/>
<path d="M7340 4416 c0 -31 6 -34 13 -6 3 11 1 23 -4 26 -5 3 -9 -6 -9 -20z"/>
<path d="M7274 4232 c-15 -10 -62 -85 -97 -157 -16 -33 -53 -91 -82 -130 -28
-38 -63 -88 -78 -111 -14 -22 -42 -61 -64 -86 -21 -25 -54 -65 -73 -89 -79
-96 -142 -157 -275 -263 -279 -221 -373 -277 -664 -392 -184 -73 -361 -111
-646 -139 -335 -34 -787 18 -1058 121 -30 11 -38 12 -35 2 4 -12 74 -38 218
-83 48 -15 194 -44 350 -70 153 -26 461 -31 637 -10 81 9 180 23 218 32 39 8
90 16 115 19 25 2 54 8 65 13 40 17 72 29 145 56 70 25 95 36 145 62 11 6 31
15 45 21 107 42 248 121 310 172 54 44 145 109 160 112 17 5 242 227 302 298
30 36 71 90 91 120 44 69 114 172 126 186 18 22 101 171 101 182 0 7 13 40 30
74 30 63 33 72 14 60z"/>
<path d="M5530 3606 c0 -2 7 -9 15 -16 9 -7 15 -8 15 -2 0 5 -7 12 -15 16 -8
3 -15 4 -15 2z"/>
<path d="M4066 3042 c20 -17 114 -55 121 -49 8 9 0 17 -23 22 -11 2 -36 10
-56 19 -41 17 -57 21 -42 8z"/>
<path d="M1507 2460 c-55 -10 -81 -25 -132 -75 l-35 -36 0 -319 c0 -201 4
-329 11 -347 27 -71 88 -99 179 -82 30 5 87 12 125 15 68 6 71 5 120 -30 77
-56 109 -76 121 -76 6 0 33 17 60 37 63 48 120 63 204 52 117 -16 158 -13 195
12 72 49 73 57 76 410 l4 316 -28 42 c-46 69 -93 84 -241 79 -115 -4 -125 -6
-202 -42 l-81 -38 -39 26 c-22 14 -59 32 -83 41 -54 19 -189 27 -254 15z m253
-138 c25 -12 62 -31 82 -43 l37 -23 81 39 c133 62 312 74 344 22 10 -17 12
-83 8 -313 -2 -160 -7 -296 -11 -302 -5 -8 -21 -7 -55 3 -102 31 -255 13 -310
-35 l-32 -28 -69 34 c-98 48 -169 59 -273 43 -69 -10 -85 -10 -92 1 -14 22
-23 284 -15 436 l7 145 37 25 c33 22 44 24 126 21 65 -3 103 -10 135 -25z"/>
<path d="M1575 2231 l-30 -7 25 -7 c14 -4 39 -7 55 -7 37 0 140 -26 178 -45
24 -12 27 -12 27 5 0 25 -21 39 -82 56 -55 14 -122 16 -173 5z"/>
<path d="M2158 2235 c-2 -3 -39 -9 -80 -15 -73 -9 -168 -45 -168 -63 0 -11 53
1 110 25 25 11 79 22 123 25 43 3 74 9 70 13 -12 11 -49 21 -55 15z"/>
<path d="M2095 2123 c-102 -24 -191 -70 -172 -89 3 -3 36 6 74 22 46 18 93 29
146 32 65 4 77 7 75 21 -2 12 -16 16 -53 18 -28 0 -59 -1 -70 -4z"/>
<path d="M1605 2113 c-28 -4 -65 -28 -65 -42 0 -3 44 -6 98 -7 77 0 107 -5
144 -22 54 -24 71 -14 35 22 -34 34 -141 58 -212 49z"/>
<path d="M2053 2010 c-60 -12 -100 -36 -118 -70 -8 -16 -15 -31 -15 -34 0 -2
35 14 77 36 68 35 84 39 142 38 90 -2 91 -2 91 14 0 25 -87 33 -177 16z"/>
<path d="M1590 1868 c-63 -17 -53 -25 42 -30 53 -3 111 -13 135 -23 23 -9 49
-15 59 -13 14 2 12 7 -10 29 -41 41 -150 59 -226 37z"/>
<path d="M2030 1861 c-44 -9 -110 -40 -110 -52 0 -13 41 -11 96 6 27 8 86 15
132 15 45 0 82 4 82 9 0 26 -117 38 -200 22z"/>
<path d="M10206 1977 c-15 -19 -26 -37 -26 -40 0 -7 -50 -74 -109 -147 -33
-40 -54 -69 -86 -118 -21 -33 -51 -67 -87 -100 -21 -19 -35 -38 -33 -43 3 -4
-1 -12 -10 -16 -17 -10 -85 -112 -85 -128 0 -19 -74 -88 -84 -78 -3 4 -14 -1
-25 -11 -18 -16 -22 -14 -104 58 -47 41 -117 92 -154 114 -121 70 -102 73
-184 -26 -41 -48 -82 -96 -92 -107 -31 -34 -40 -55 -22 -55 8 0 15 7 15 15 0
9 28 46 63 83 34 37 74 83 89 102 24 32 28 34 42 19 15 -14 15 -18 -8 -42 -14
-15 -31 -27 -39 -27 -18 0 -77 -59 -77 -76 0 -7 -10 -20 -22 -29 -19 -13 -21
-18 -10 -35 16 -26 15 -31 -3 -24 -8 4 -15 3 -15 0 0 -3 26 -19 58 -35 91 -46
262 -188 262 -217 0 -7 -31 -45 -68 -86 -123 -131 -126 -135 -201 -235 -29
-40 -61 -75 -70 -78 -9 -3 -25 -19 -35 -35 -10 -17 -36 -50 -59 -74 -82 -84
-136 -149 -131 -158 3 -4 -1 -8 -9 -8 -7 0 -24 -12 -38 -27 -13 -14 -18 -23
-11 -19 20 12 13 -7 -14 -38 -14 -15 -28 -26 -31 -23 -6 7 -33 -18 -33 -31 0
-14 -44 -62 -58 -62 -7 0 -12 -4 -12 -9 0 -4 -25 -35 -56 -67 l-55 -59 653 -3
c359 -1 662 0 674 3 18 4 36 20 117 106 9 11 17 25 17 33 0 8 5 18 10 21 6 4
7 11 4 17 -4 7 -2 8 4 4 7 -4 12 -2 12 4 0 6 4 9 8 6 8 -5 102 83 101 94 -1
14 16 45 37 68 l24 25 0 813 c0 448 -2 814 -4 814 -3 0 -16 -15 -30 -33z
m-797 -531 c49 -26 54 -39 29 -82 -12 -22 -36 -55 -52 -76 -17 -20 -39 -48
-49 -62 -23 -33 -35 -33 -80 2 -42 32 -41 39 11 127 63 107 84 120 141 91z
m361 -341 c0 -15 -116 -152 -146 -171 -24 -16 -26 -16 -54 11 -17 16 -30 32
-30 36 0 3 13 12 30 19 40 16 97 82 123 138 l20 46 28 -34 c16 -19 29 -39 29
-45z"/>
<path d="M8795 260 c-3 -5 -1 -10 4 -10 6 0 11 5 11 10 0 6 -2 10 -4 10 -3 0
-8 -4 -11 -10z"/>
</g>
</svg>
